<?xml version="1.0" standalone="no"?><!DOCTYPE svg PUBLIC "-//W3C//DTD SVG 1.1//EN" "http://www.w3.org/Graphics/SVG/1.1/DTD/svg11.dtd"><svg t="1630593613656" class="icon" viewBox="0 0 1024 1024" version="1.1" xmlns="http://www.w3.org/2000/svg" p-id="805" xmlns:xlink="http://www.w3.org/1999/xlink" width="200" height="200"><defs><style type="text/css"></style></defs><path d="M0 512a512 512 0 1 0 1024 0A512 512 0 1 0 0 512z" fill="#dbdbdb" p-id="806"></path><path d="M777.6 264c20.8 16 24.8 46.4 8.8 67.2l-391.2 504c-16 20.8-46.4 24.8-67.2 8.8L110.4 674.4c-20.8-16-24.8-46.4-8.8-67.2l391.2-504c16-20.8 46.4-24.8 67.2-8.8L777.6 264z" fill="#e6e6e6" p-id="807"></path><path d="M358.4 864c-12 0-24-4-33.6-12L109.6 683.2c-24-19.2-28.8-54.4-9.6-78.4l386.4-503.2C496.8 88 512.8 80 530.4 80c12 0 24 4 33.6 12l215.2 168.8c24 19.2 28.8 54.4 9.6 78.4L402.4 842.4c-11.2 13.6-27.2 21.6-44 21.6zM529.6 96c-12 0-24 5.6-31.2 15.2L112 614.4c-13.6 17.6-10.4 42.4 7.2 56L333.6 840c7.2 5.6 15.2 8 24 8 12 0 24-5.6 31.2-15.2L776 329.6c13.6-17.6 10.4-42.4-7.2-56L554.4 104c-7.2-4.8-15.2-8-24.8-8z" fill="#176859" p-id="808"></path><path d="M378.722 555.973A115.2 115.2 0 1 0 520.11 374.057a115.2 115.2 0 1 0-141.388 181.916z" fill="#5EDD94" p-id="809"></path><path d="M452 592c-28 0-54.4-8.8-76-26.4-53.6-41.6-64-120-21.6-174.4 24-30.4 59.2-48 97.6-48 28 0 54.4 8.8 76 26.4 26.4 20 43.2 49.6 47.2 82.4 4 32.8-4.8 65.6-24.8 91.2-24 31.2-60 48.8-98.4 48.8z m0-232c-33.6 0-64.8 15.2-85.6 41.6-36.8 47.2-28 115.2 19.2 151.2 19.2 15.2 41.6 22.4 66.4 22.4 33.6 0 64.8-15.2 85.6-41.6 17.6-22.4 25.6-51.2 21.6-80-3.2-28.8-18.4-54.4-40.8-72C499.2 368 476 360 452 360zM152 713.6c-1.6 0-3.2-0.8-4.8-1.6-3.2-2.4-4-7.2-0.8-10.4l1.6-1.6c28.8-36 21.6-88.8-15.2-116.8l-0.8-0.8-1.6-0.8c-3.2-2.4-4-7.2-1.6-10.4s7.2-4 10.4-1.6l0.8 0.8c0.8 0.8 1.6 0.8 1.6 1.6 43.2 32.8 51.2 95.2 17.6 137.6l-1.6 1.6-0.8 0.8c0 0.8-2.4 1.6-4.8 1.6z m368-539.2c-20.8 0-41.6-7.2-59.2-21.6l-1.6-1.6-0.8-0.8c-3.2-2.4-4-7.2-0.8-11.2 2.4-3.2 7.2-4 10.4-0.8 0.8 0 0.8 0.8 1.6 0.8l0.8 0.8c36 28.8 87.2 22.4 115.2-15.2l0.8-0.8 0.8-0.8c2.4-3.2 7.2-4 10.4-1.6s4 7.2 1.6 11.2l-0.8 0.8c-0.8 0.8-0.8 1.6-1.6 1.6-19.2 25.6-48 39.2-76.8 39.2zM287.2 820c-1.6 0-3.2-0.8-4.8-1.6-3.2-2.4-4-7.2-1.6-11.2l0.8-0.8c0.8-0.8 0.8-1.6 1.6-1.6 35.2-45.6 101.6-53.6 147.2-18.4l1.6 1.6 0.8 0.8c3.2 2.4 4 8 1.6 11.2-2.4 3.2-8 4-11.2 1.6-0.8 0-0.8-0.8-1.6-1.6l-0.8-0.8c-38.4-29.6-94.4-23.2-124 16l-1.6 2.4c-3.2 0.8-5.6 2.4-8 2.4z m467.2-440c-1.6 0-3.2-0.8-4.8-1.6l-0.8-0.8c-0.8 0-0.8-0.8-1.6-1.6-45.6-35.2-53.6-101.6-18.4-147.2l1.6-1.6 0.8-0.8c3.2-3.2 8-4 11.2-0.8 3.2 3.2 4 8 0.8 11.2l-1.6 2.4c-29.6 38.4-23.2 94.4 16 124l0.8 0.8c0.8 0 0.8 0.8 1.6 0.8 3.2 2.4 4 8 1.6 11.2-1.6 3.2-4 4-7.2 4z" fill="#176859" p-id="810"></path><path d="M294.4 668.8l50.4-64.8" fill="#5EDD94" p-id="811"></path><path d="M294.4 676.8c-1.6 0-3.2-0.8-4.8-1.6-3.2-2.4-4-8-1.6-11.2l50.4-64c2.4-3.2 8-4 11.2-1.6 3.2 2.4 4 8 1.6 11.2l-50.4 64c-1.6 2.4-4 3.2-6.4 3.2z" fill="#176859" p-id="812"></path><path d="M556 332l50.4-64" fill="#5EDD94" p-id="813"></path><path d="M556 340c-1.6 0-3.2-0.8-4.8-1.6-3.2-2.4-4-8-1.6-11.2l50.4-64c2.4-3.2 8-4 11.2-1.6 3.2 2.4 4 8 1.6 11.2l-50.4 64c-1.6 2.4-4 3.2-6.4 3.2z" fill="#176859" p-id="814"></path><path d="M884 353.6c18.4 19.2 17.6 49.6-1.6 68L423.2 864c-19.2 18.4-49.6 17.6-68-1.6L164 664.8c-18.4-19.2-17.6-49.6 0.8-68L624 153.6c19.2-18.4 49.6-17.6 68 0.8l192 199.2z" fill="#e6e6e6" p-id="815"></path><path d="M390.4 888c-15.2 0-29.6-6.4-40-16.8L160 672.8c-21.6-22.4-20.8-57.6 1.6-79.2L618.4 152c10.4-10.4 24-16 38.4-16 15.2 0 29.6 6.4 40 16.8L888 351.2c10.4 10.4 16 24.8 15.2 40 0 15.2-6.4 28.8-16.8 39.2L429.6 872c-10.4 10.4-24.8 16-39.2 16z m267.2-736c-10.4 0-20 4-28 11.2L172 605.6c-16 15.2-16 40.8-0.8 56.8L361.6 860c7.2 8 17.6 12 28.8 12 10.4 0 20-4 28-11.2L876 418.4c8-7.2 12-17.6 12-28 0-10.4-4-20.8-11.2-28.8L686.4 164c-8-8-18.4-12-28.8-12z" fill="#176859" p-id="816"></path><path d="M447.219 585.596a115.2 115.2 0 1 0 165.772-160.012A115.2 115.2 0 1 0 447.22 585.596z" fill="#5EDD94" p-id="817"></path><path d="M528 624c-32.8 0-63.2-12.8-86.4-36.8-45.6-48-44.8-124 3.2-169.6 22.4-21.6 52-33.6 83.2-33.6 32.8 0 63.2 12.8 86.4 36.8 22.4 23.2 34.4 53.6 33.6 85.6-0.8 32-13.6 61.6-36.8 84-22.4 21.6-52 33.6-83.2 33.6z m0-224.8c-27.2 0-52.8 10.4-72.8 29.6-41.6 40-42.4 106.4-2.4 148 20 20.8 46.4 32 75.2 32 27.2 0 52.8-10.4 72.8-29.6 20-19.2 31.2-45.6 32-73.6 0.8-28-9.6-54.4-29.6-74.4-20-20-46.4-32-75.2-32zM200 709.6c-2.4 0-4-0.8-5.6-2.4-3.2-3.2-2.4-8 0.8-11.2l2.4-1.6c35.2-32.8 36-86.4 2.4-120l-0.8-0.8c-0.8 0-0.8-0.8-1.6-0.8-3.2-3.2-3.2-8 0-11.2 3.2-3.2 8-3.2 11.2 0l0.8 0.8 1.6 1.6c40 40 39.2 103.2-2.4 141.6l-1.6 1.6-0.8 0.8c-2.4 1.6-4.8 1.6-6.4 1.6z m456.8-480c-25.6 0-50.4-10.4-68.8-30.4l-1.6-1.6-0.8-0.8c-2.4-3.2-2.4-8 0-10.4 3.2-3.2 8-2.4 10.4 0 0 0.8 0.8 0.8 0.8 1.6l0.8 0.8c31.2 33.6 83.2 34.4 115.2 2.4l0.8-0.8 0.8-0.8c3.2-3.2 7.2-3.2 10.4 0s3.2 8 0 10.4h0.8l-1.6 1.6c-18.4 18.4-43.2 28-67.2 28z m-196 607.2c-2.4 0-4-0.8-5.6-2.4l-1.6-1.6-0.8-0.8c-16.8-16.8-38.4-26.4-62.4-27.2-24-0.8-46.4 8-63.2 24.8l-0.8 0.8-0.8 0.8c-3.2 3.2-8 3.2-11.2 0-3.2-3.2-3.2-8 0-11.2l0.8-0.8 1.6-1.6c20-19.2 46.4-30.4 74.4-29.6 28 0.8 54.4 12 73.6 32l1.6 1.6 0.8 0.8c3.2 3.2 3.2 8 0 11.2-2.4 2.4-4.8 3.2-6.4 3.2z m384.8-372c-2.4 0-4-0.8-5.6-2.4l-0.8-0.8-1.6-1.6c-40-41.6-39.2-108 2.4-148l1.6-1.6 0.8-0.8c3.2-3.2 8-2.4 11.2 0.8 3.2 3.2 2.4 8-0.8 11.2l-0.8 0.8-0.8 0.8c-35.2 33.6-36 90.4-2.4 125.6l0.8 0.8c0.8 0 0.8 0.8 1.6 0.8 3.2 3.2 3.2 8 0 11.2-1.6 2.4-4 3.2-5.6 3.2z" fill="#176859" p-id="818"></path><path d="M348 685.6l58.4-56.8" fill="#5EDD94" p-id="819"></path><path d="M348 693.6c-2.4 0-4-0.8-5.6-2.4-3.2-3.2-3.2-8 0-11.2l58.4-56.8c3.2-3.2 8-3.2 11.2 0 3.2 3.2 3.2 8 0 11.2l-58.4 56.8c-1.6 1.6-4 2.4-5.6 2.4z" fill="#176859" p-id="820"></path><path d="M654.4 389.6l58.4-56.8" fill="#5EDD94" p-id="821"></path><path d="M654.4 397.6c-2.4 0-4-0.8-5.6-2.4-3.2-3.2-3.2-8 0-11.2l58.4-56.8c3.2-3.2 8-3.2 11.2 0 3.2 3.2 3.2 8 0 11.2L660 395.2c-1.6 1.6-4 2.4-5.6 2.4z" fill="#176859" p-id="822"></path><path d="M972 455.2c16 20.8 11.2 51.2-9.6 67.2L452 905.6c-20.8 16-51.2 11.2-67.2-9.6L220 675.2c-16-20.8-11.2-51.2 9.6-67.2L740 224.8c20.8-16 51.2-11.2 67.2 9.6L972 455.2z" fill="#e6e6e6" p-id="823"></path><path d="M423.2 928c-17.6 0-34.4-8-44.8-22.4L211.2 684c-18.4-24.8-13.6-60 11.2-79.2l512.8-385.6c9.6-7.2 21.6-11.2 33.6-11.2 17.6 0 34.4 8 44.8 22.4L980 452c8.8 12 12.8 27.2 10.4 41.6-2.4 15.2-9.6 28-21.6 36.8L456 916c-9.6 8-20.8 12-32.8 12z m346.4-704c-8.8 0-16.8 2.4-24 8L232 617.6c-17.6 13.6-21.6 38.4-8 56L390.4 896c7.2 10.4 19.2 16 32 16 8.8 0 16.8-2.4 24-8L960 518.4c8.8-6.4 14.4-16 16-26.4 1.6-10.4-0.8-21.6-8-29.6L801.6 240c-8-9.6-20-16-32-16z" fill="#176859" p-id="824"></path><path d="M510.12 631.766a115.2 115.2 0 1 0 184.22-138.373 115.2 115.2 0 1 0-184.22 138.373z" fill="#e6e6e6" p-id="825"></path><path d="M604 688c-39.2 0-75.2-18.4-99.2-49.6-40.8-54.4-29.6-132.8 24.8-173.6 21.6-16 47.2-24.8 74.4-24.8 39.2 0 75.2 18.4 99.2 49.6 20 26.4 28 59.2 24 92-4.8 32.8-21.6 61.6-48 81.6-22.4 16-48 24.8-75.2 24.8z m0-232c-23.2 0-45.6 7.2-64.8 21.6-47.2 36-57.6 103.2-21.6 151.2 20.8 27.2 52 43.2 86.4 43.2 23.2 0 45.6-7.2 64.8-21.6 23.2-17.6 37.6-42.4 42.4-71.2 4-28.8-3.2-56.8-20.8-80-20.8-27.2-52-43.2-86.4-43.2zM251.2 724.8c-2.4 0-5.6-0.8-7.2-3.2-2.4-4-1.6-8.8 2.4-11.2l1.6-0.8 0.8-0.8c20-14.4 33.6-35.2 36.8-58.4 3.2-23.2-3.2-46.4-18.4-65.6l-0.8-0.8c-0.8-0.8-0.8-0.8-0.8-1.6-3.2-3.2-2.4-8.8 1.6-11.2 4-2.4 8.8-2.4 12 1.6l0.8 0.8 1.6 1.6c17.6 22.4 25.6 49.6 21.6 77.6-4 28-20 52-44 68.8-0.8 0.8-1.6 0.8-2.4 1.6h-0.8c-1.6 0.8-3.2 1.6-4.8 1.6zM777.6 304c-32 0-63.2-14.4-84-40.8l-1.6-1.6-0.8-0.8c-2.4-3.2-1.6-8.8 1.6-11.2 4-2.4 8.8-1.6 11.2 1.6l1.6 2.4c29.6 38.4 84.8 46.4 124 17.6l0.8-0.8 1.6-0.8c3.2-2.4 8.8-2.4 11.2 1.6 2.4 3.2 2.4 8-1.6 11.2l-0.8 0.8-1.6 1.6c-17.6 12.8-40 19.2-61.6 19.2z m-284 578.4c-2.4 0-4.8-0.8-6.4-3.2l-1.6-2.4c-29.6-39.2-84.8-47.2-124-17.6l-2.4 1.6c-3.2 2.4-8.8 2.4-11.2-1.6-2.4-3.2-2.4-8.8 1.6-11.2l0.8-0.8 1.6-1.6c46.4-34.4 112-25.6 146.4 20.8l1.6 1.6 0.8 0.8c2.4 3.2 1.6 8.8-1.6 11.2-2.4 1.6-4 2.4-5.6 2.4z m425.6-321.6c-2.4 0-4.8-0.8-6.4-3.2l-0.8-0.8-1.6-1.6c-17.6-22.4-25.6-49.6-21.6-77.6 4-28 20-52 44-68.8 0.8-0.8 1.6-0.8 2.4-1.6l0.8-0.8c4-2.4 9.6-1.6 12 1.6 2.4 4 1.6 8.8-2.4 11.2l-1.6 0.8-0.8 0.8c-20 14.4-33.6 35.2-36.8 58.4-3.2 23.2 3.2 46.4 18.4 65.6l0.8 0.8 1.6 1.6c3.2 3.2 2.4 8.8-1.6 11.2-2.4 2.4-4 2.4-6.4 2.4z" fill="#176859" p-id="826"></path><path d="M399.2 718.4l65.6-48.8" fill="#5EDD94" p-id="827"></path><path d="M400 728c-2.4 0-4.8-0.8-6.4-3.2-2.4-3.2-1.6-8.8 1.6-11.2l64-48c3.2-2.4 8.8-1.6 11.2 1.6 2.4 3.2 1.6 8.8-1.6 11.2l-64 48c-1.6 0.8-3.2 1.6-4.8 1.6z" fill="#176859" p-id="828"></path><path d="M740 462.4l65.6-48.8" fill="#5EDD94" p-id="829"></path><path d="M736.8 472c-2.4 0-5.6-1.6-7.2-3.2-3.2-4-2.4-9.6 1.6-12.8l70.4-54.4c4-3.2 9.6-2.4 12 1.6 3.2 4 2.4 9.6-1.6 12.8l-70.4 54.4c-1.6 0.8-3.2 1.6-4.8 1.6zM623.2 597.6c-9.6 7.2-25.6 14.4-32 7.2-2.4-3.2-3.2-8.8 2.4-12.8 4.8-4 11.2-3.2 18.4-8l-12.8-16c-13.6 4.8-28.8 10.4-40.8-4-10.4-12.8-7.2-27.2 6.4-38.4l-4.8-6.4c-1.6-1.6-0.8-4 0.8-4.8 1.6-1.6 4-0.8 5.6 0.8l4.8 5.6c8-5.6 21.6-12.8 28-5.6 3.2 4 2.4 9.6-2.4 12.8-4 3.2-7.2 2.4-14.4 6.4l12 15.2c14.4-4.8 28.8-11.2 40 3.2 10.4 12.8 7.2 28.8-4.8 40l4.8 5.6c1.6 1.6 0.8 4-0.8 4.8-1.6 1.6-4 0.8-5.6-0.8l-4.8-4.8zM586.4 552L576 539.2c-3.2 3.2-5.6 7.2-2.4 11.2 3.2 4 7.2 3.2 9.6 2.4l3.2-0.8z m22.4 12l-3.2 0.8 11.2 14.4c3.2-4 4-8.8 0.8-12.8-2.4-4-6.4-3.2-8.8-2.4z m316-448c-2.4 0-4-0.8-5.6-2.4-3.2-3.2-3.2-8 0-11.2l51.2-51.2c3.2-3.2 8-3.2 11.2 0 3.2 3.2 3.2 8 0 11.2l-51.2 51.2c-1.6 1.6-4 2.4-5.6 2.4z m-42.4-24h-1.6c-4-0.8-7.2-4.8-6.4-9.6l10.4-51.2c0.8-4 4.8-7.2 9.6-6.4 4 0.8 7.2 4.8 6.4 9.6l-10.4 51.2c-0.8 4-4 6.4-8 6.4z m66.4 66.4c-4 0-7.2-2.4-8-6.4-0.8-4 1.6-8.8 6.4-9.6l51.2-10.4c4-0.8 8.8 1.6 9.6 6.4 0.8 4-1.6 8.8-6.4 9.6l-51.2 10.4h-1.6z" fill="#176859" p-id="830"></path><path d="M618.4 373.6c-2.4 0-4.8-0.8-6.4-3.2-2.4-3.2-1.6-8.8 1.6-11.2l61.6-46.4c3.2-2.4 8.8-1.6 11.2 1.6 2.4 3.2 1.6 8.8-1.6 11.2L623.2 372c-1.6 1.6-3.2 1.6-4.8 1.6zM344.8 579.2c-2.4 0-4.8-0.8-6.4-3.2-2.4-3.2-1.6-8.8 1.6-11.2l222.4-167.2c3.2-2.4 8.8-1.6 11.2 1.6 2.4 3.2 1.6 8.8-1.6 11.2L349.6 577.6c-1.6 0.8-3.2 1.6-4.8 1.6z m168 240c-2.4 0-4.8-0.8-6.4-3.2-2.4-3.2-1.6-8.8 1.6-11.2l335.2-251.2c3.2-2.4 8.8-1.6 11.2 1.6 2.4 3.2 1.6 8.8-1.6 11.2L517.6 817.6c-1.6 0.8-3.2 1.6-4.8 1.6z m380-402.4c-2.4 0-4.8-0.8-6.4-3.2l-63.2-84c-2.4-3.2-1.6-8.8 1.6-11.2 3.2-2.4 8.8-1.6 11.2 1.6l63.2 84c2.4 3.2 1.6 8.8-1.6 11.2-1.6 1.6-3.2 1.6-4.8 1.6zM492 346.4c-2.4 0-4-0.8-5.6-2.4-3.2-3.2-3.2-8 0-11.2l95.2-92.8c3.2-3.2 8-3.2 11.2 0 3.2 3.2 3.2 8 0 11.2L497.6 344c-1.6 1.6-3.2 2.4-5.6 2.4z m-109.6-21.6c-1.6 0-3.2-0.8-4.8-1.6-3.2-2.4-4-8-1.6-11.2l82.4-111.2c2.4-3.2 8-4 11.2-1.6 3.2 2.4 4 8 1.6 11.2l-82.4 111.2c-1.6 2.4-4 3.2-6.4 3.2z" fill="#FFFFFF" p-id="831"></path><path d="M704.8 877.6c0-3.2-3.2-6.4-8-7.2l-15.2-2.4c-4-0.8-8.8-4.8-8.8-8.8l-2.4-15.2c-0.8-4-4-8-7.2-8s-6.4 3.2-7.2 8l-2.4 15.2c-0.8 4-4.8 8.8-8.8 8.8l-15.2 2.4c-4 0.8-8 4-8 7.2s3.2 6.4 8 7.2l15.2 2.4c4 0.8 8.8 4.8 8.8 8.8l2.4 15.2c0.8 4 4 8 7.2 8s6.4-3.2 7.2-8l2.4-16.8c0.8-4 4.8-8 8.8-8.8l14.4-0.8c5.6-0.8 8.8-4 8.8-7.2zM228 280c0-3.2-3.2-6.4-8-7.2l-15.2-2.4c-4-0.8-8.8-4.8-8.8-8.8l-2.4-15.2c-0.8-4-4-8-7.2-8s-6.4 3.2-7.2 8l-2.4 15.2c-0.8 4-4.8 8.8-8.8 8.8l-15.2 2.4c-4 0.8-8 4-8 7.2s3.2 6.4 8 7.2l15.2 2.4c4 0.8 8.8 4.8 8.8 8.8l2.4 15.2c0.8 4 4 8 7.2 8s6.4-3.2 7.2-8l2.4-16.8c0.8-4 4.8-8 8.8-8.8l14.4-0.8c4.8-1.6 8.8-4 8.8-7.2zM88 480c-17.6 0-32-14.4-32-32s14.4-32 32-32 32 14.4 32 32-14.4 32-32 32z m0-48c-8.8 0-16 7.2-16 16s7.2 16 16 16 16-7.2 16-16-7.2-16-16-16z m232-256c-17.6 0-32-14.4-32-32s14.4-32 32-32 32 14.4 32 32-14.4 32-32 32z m0-48c-8.8 0-16 7.2-16 16s7.2 16 16 16 16-7.2 16-16-7.2-16-16-16z m552 608c-17.6 0-32-14.4-32-32s14.4-32 32-32 32 14.4 32 32-14.4 32-32 32z m0-48c-8.8 0-16 7.2-16 16s7.2 16 16 16 16-7.2 16-16-7.2-16-16-16z" fill="#FFFFFF" p-id="832"></path></svg>