<?xml version="1.0" standalone="no"?><!DOCTYPE svg PUBLIC "-//W3C//DTD SVG 1.1//EN" "http://www.w3.org/Graphics/SVG/1.1/DTD/svg11.dtd"><svg t="1630037176385" class="icon" viewBox="0 0 1024 1024" version="1.1" xmlns="http://www.w3.org/2000/svg" p-id="1874" xmlns:xlink="http://www.w3.org/1999/xlink" width="200" height="200"><defs><style type="text/css"></style></defs><path d="M128 816h-8c-26.464 0-48-21.536-48-48V80c0-26.464 21.536-48 48-48h496c26.464 0 48 21.536 48 48v8a8 8 0 0 1-16 0V80c0-17.648-14.352-32-32-32h-496c-17.648 0-32 14.352-32 32v688c0 17.648 14.352 32 32 32H128a8 8 0 0 1 0 16zM836.128 629.152a8.064 8.064 0 0 1-5.664-2.336l-67.888-67.888a8 8 0 0 1 0-11.328l32.176-32.16c18.112-18.112 49.728-18.144 67.872 0l11.312 11.312c9.056 9.056 14.064 21.12 14.064 33.936 0 12.832-4.992 24.88-14.064 33.936l-32.16 32.176a7.872 7.872 0 0 1-5.648 2.352z m-56.576-75.888l56.576 56.576 26.496-26.512c6.048-6.048 9.376-14.08 9.376-22.624s-3.328-16.576-9.376-22.624l-11.312-11.312c-12.096-12.096-33.152-12.096-45.248 0l-26.512 26.496zM421.392 976a8.032 8.032 0 0 1-7.6-10.528l33.936-101.824a7.84 7.84 0 0 1 1.936-3.12l33.952-33.936a8 8 0 0 1 11.312 0l67.872 67.888a8 8 0 0 1 0 11.312l-33.936 33.936a7.952 7.952 0 0 1-3.12 1.936l-101.824 33.936a8.592 8.592 0 0 1-2.528 0.4z m40.928-105.504l-28.288 84.864 84.864-28.304 26.96-26.944-56.56-56.576-26.976 26.96z" fill="#263238" p-id="1875"></path><path d="M421.392 976a8.032 8.032 0 0 1-7.6-10.528l22.624-67.872a8 8 0 0 1 13.248-3.12l45.264 45.248a8.016 8.016 0 0 1-3.12 13.248l-67.888 22.624a8.592 8.592 0 0 1-2.528 0.4z m26.128-61.056l-13.472 40.416 40.416-13.488-26.944-26.928z" fill="#263238" p-id="1876"></path><path d="M489.264 832.224L768.224 553.28l67.872 67.888-278.944 278.96z" fill="#FF5252" p-id="1877"></path><path d="M557.152 908.128a8.064 8.064 0 0 1-5.664-2.336l-67.872-67.888a8 8 0 0 1 0-11.312l278.96-278.976a8.224 8.224 0 0 1 11.312 0l67.888 67.888a8 8 0 0 1 0 11.312L562.816 905.776a8 8 0 0 1-5.664 2.352z m-56.56-75.888l56.56 56.576 267.664-267.664-56.576-56.576-267.648 267.664zM414.32 896H200c-26.464 0-48-21.536-48-48V160c0-26.464 21.536-48 48-48h496c26.464 0 48 21.536 48 48v380.256a8 8 0 0 1-16 0V160c0-17.648-14.352-32-32-32h-496c-17.648 0-32 14.352-32 32v688c0 17.648 14.352 32 32 32h214.32a8 8 0 0 1 0 16zM696 896h-81.472a8 8 0 0 1 0-16H696c17.648 0 32-14.352 32-32v-81.472a8 8 0 0 1 16 0V848c0 26.464-21.536 48-48 48z" fill="#263238" p-id="1878"></path><path d="M216 520h64v128h-64z" fill="#FFD740" p-id="1879"></path><path d="M280 656h-64a8 8 0 0 1-8-8v-128a8 8 0 0 1 8-8h64a8 8 0 0 1 8 8v128a8 8 0 0 1-8 8zM224 640h48v-112h-48v112z" fill="#263238" p-id="1880"></path><path d="M328 424h64v224h-64z" fill="#FFD740" p-id="1881"></path><path d="M392 656h-64a8 8 0 0 1-8-8v-224a8 8 0 0 1 8-8h64a8 8 0 0 1 8 8v224a8 8 0 0 1-8 8zM336 640h48V432h-48v208z" fill="#263238" p-id="1882"></path><path d="M440 472h64v176h-64z" fill="#FFD740" p-id="1883"></path><path d="M504 656h-64a8 8 0 0 1-8-8v-176a8 8 0 0 1 8-8h64a8 8 0 0 1 8 8v176a8 8 0 0 1-8 8zM448 640h48V480h-48v160zM688 336H208a8 8 0 0 1 0-16h480a8 8 0 0 1 0 16zM660 232H616a8 8 0 0 1-8-8v-40a8 8 0 0 1 8-8h44c15.44 0 28 12.56 28 28s-12.56 28-28 28z m-36-16h36c6.608 0 12-5.392 12-12s-5.392-12-12-12H624v24z" fill="#263238" p-id="1884"></path><path d="M616 192h-16a8 8 0 0 1 0-16h16a8 8 0 0 1 0 16zM616 272h-16a8 8 0 0 1 0-16h16a8 8 0 0 1 0 16z" fill="#263238" p-id="1885"></path><path d="M624 192a8 8 0 0 1-8-8v-16a8 8 0 0 1 16 0v16a8 8 0 0 1-8 8zM656 192a8 8 0 0 1-8-8v-16a8 8 0 0 1 16 0v16a8 8 0 0 1-8 8zM624 288a8 8 0 0 1-8-8v-16a8 8 0 0 1 16 0v16a8 8 0 0 1-8 8zM656 288a8 8 0 0 1-8-8v-16a8 8 0 0 1 16 0v16a8 8 0 0 1-8 8z" fill="#263238" p-id="1886"></path><path d="M668 272H616a8 8 0 0 1-8-8V224a8 8 0 0 1 8-8h52c15.44 0 28 12.56 28 28S683.44 272 668 272zM624 256h44c6.608 0 12-5.392 12-12s-5.392-12-12-12H624V256zM688 480h-120a8 8 0 0 1 0-16H688a8 8 0 0 1 0 16zM688 528h-120a8 8 0 0 1 0-16H688a8 8 0 0 1 0 16zM688 576h-120a8 8 0 0 1 0-16H688a8 8 0 0 1 0 16zM800 976h-16a8 8 0 0 1 0-16h16a8 8 0 0 1 0 16zM752 976H592a8 8 0 0 1 0-16h160a8 8 0 0 1 0 16zM176 976h-16a8 8 0 0 1 0-16h16a8 8 0 0 1 0 16zM368 976H208a8 8 0 0 1 0-16h160a8 8 0 0 1 0 16z" fill="#263238" p-id="1887"></path><path d="M944 272h-64a8 8 0 0 1 0-16h64a8 8 0 0 1 0 16z" fill="#263238" p-id="1888"></path><path d="M912 304a8 8 0 0 1-8-8v-64a8 8 0 0 1 16 0v64a8 8 0 0 1-8 8z" fill="#263238" p-id="1889"></path><path d="M872 368h-64a8 8 0 0 1 0-16h64a8 8 0 0 1 0 16z" fill="#263238" p-id="1890"></path><path d="M840 400a8 8 0 0 1-8-8v-64a8 8 0 0 1 16 0v64a8 8 0 0 1-8 8z" fill="#263238" p-id="1891"></path></svg>