<?xml version="1.0" standalone="no"?><!DOCTYPE svg PUBLIC "-//W3C//DTD SVG 1.1//EN" "http://www.w3.org/Graphics/SVG/1.1/DTD/svg11.dtd"><svg t="1630601068894" class="icon" viewBox="0 0 1024 1024" version="1.1" xmlns="http://www.w3.org/2000/svg" p-id="855" xmlns:xlink="http://www.w3.org/1999/xlink" width="200" height="200"><defs><style type="text/css"></style></defs><path d="M420.796 969.66c-44.237 0-80.282-36.045-80.282-80.282V320.853c0-44.236 36.045-80.281 80.282-80.281h423.8c44.236 0 80.28 36.045 80.28 80.281v567.979c0 44.237-36.044 80.282-80.28 80.282h-423.8z" fill="#27C18F" p-id="856"></path><path d="M844.595 265.694c30.038 0 54.614 24.576 54.614 54.613v568.525c0 30.037-24.576 54.613-54.614 54.613h-423.8c-30.037 0-54.613-24.576-54.613-54.613V320.853c0-30.037 24.576-54.613 54.614-54.613h423.8m0-51.337h-423.8c-58.437 0-105.95 47.514-105.95 105.95v567.979c0 58.436 47.513 105.95 105.95 105.95h423.8c58.435 0 105.95-47.514 105.95-105.95V320.853c0-58.436-48.06-105.95-105.95-105.95z" fill="#333333" p-id="857"></path><path d="M420.796 864.256c-44.237 0-80.282-36.045-80.282-80.282V218.726c0-44.236 36.045-80.281 80.282-80.281h423.8c44.236 0 80.28 36.045 80.28 80.281v564.702c0 44.237-36.044 80.282-80.28 80.282h-423.8z" fill="#cdcdcd" p-id="858"></path><path d="M844.595 164.113c30.038 0 54.614 24.576 54.614 54.613v564.702c0 30.038-24.576 54.614-54.614 54.614h-423.8c-30.037 0-54.613-24.576-54.613-54.614V218.726c0-30.037 24.576-54.613 54.614-54.613h423.8m0-51.336h-423.8c-58.437 0-105.95 47.513-105.95 105.95v564.701c0 58.437 47.513 105.95 105.95 105.95h423.8c58.435 0 105.95-47.513 105.95-105.95V218.726c0-58.436-48.06-105.95-105.95-105.95z" fill="#333333" p-id="859"></path><path d="M755.575 240.572c-58.436 0-105.95-47.514-105.95-105.95s47.514-105.95 105.95-105.95 105.95 47.514 105.95 105.95c0 14.2-11.468 25.668-25.668 25.668s-25.668-11.469-25.668-25.668c0-30.037-24.576-54.613-54.614-54.613s-54.613 24.576-54.613 54.613 24.576 54.613 54.613 54.613c14.2 0 25.669 11.469 25.669 25.668s-11.47 25.669-25.669 25.669z" fill="#333333" p-id="860"></path><path d="M629.965 240.572c-58.436 0-105.95-47.514-105.95-105.95s47.514-105.95 105.95-105.95 105.95 48.06 105.95 105.95c0 14.2-11.47 25.668-25.669 25.668s-25.668-11.469-25.668-25.668c0-30.037-24.576-54.613-54.613-54.613s-54.614 24.576-54.614 54.613 24.576 54.613 54.614 54.613c14.2 0 25.668 11.469 25.668 25.668s-11.469 25.669-25.668 25.669z" fill="#333333" p-id="861"></path><path d="M509.27 240.572c-58.437 0-105.95-47.514-105.95-105.95s47.513-105.95 105.95-105.95 105.95 47.514 105.95 105.95c0 14.2-11.47 25.668-25.67 25.668s-25.667-11.469-25.667-25.668c0-30.037-24.576-54.613-54.614-54.613s-54.613 24.576-54.613 54.613 24.576 54.613 54.613 54.613c14.2 0 25.669 11.469 25.669 25.668s-11.47 25.669-25.669 25.669zM781.243 430.08h-315.12c-14.199 0-25.667-11.469-25.667-25.668s11.468-25.669 25.668-25.669h315.119c14.2 0 25.668 11.47 25.668 25.669s-11.469 25.668-25.668 25.668z m-129.98 112.503h-185.14c-14.199 0-25.667-11.468-25.667-25.668s11.468-25.668 25.668-25.668h185.139c14.2 0 25.668 11.469 25.668 25.668s-11.469 25.668-25.668 25.668z" fill="#333333" p-id="862"></path><path d="M209.442 966.383c-12.015 0-22.391-8.192-25.122-19.66l-21.3-89.02c-0.545-2.185-0.545-3.824-0.545-6.008V154.829c0-14.2 11.468-25.668 25.668-25.668h42.052c14.2 0 25.668 11.468 25.668 25.668v696.866c0 2.184 0 3.823-0.546 6.007l-21.299 89.02c-2.73 11.469-13.107 19.66-24.576 19.66z" fill="#27C18F" p-id="863"></path><path d="M230.195 154.829v696.866l-21.299 89.02-21.3-89.02V154.829h42.6m0-50.79h-42.053c-28.399 0-51.337 22.937-51.337 51.336V852.24c0 3.823 0.547 8.192 1.639 12.015l21.299 89.02c5.461 22.937 26.214 39.321 49.698 39.321s44.237-16.384 49.698-39.321l21.3-89.02c1.092-3.823 1.638-7.646 1.638-12.015V154.83c-0.546-27.853-23.484-50.79-51.883-50.79z" fill="#333333" p-id="864"></path><path d="M99.123 454.11c-14.2 0-25.668-11.469-25.668-25.668v-245.76c0-38.23 31.13-69.36 69.359-69.36 14.2 0 25.668 11.47 25.668 25.669s-11.469 25.668-25.668 25.668c-10.377 0-18.569 8.192-18.569 18.569v245.76c0.546 13.653-10.922 25.122-25.122 25.122z" fill="#333333" p-id="865"></path><path d="M178.313 762.675c-14.2 0-25.669-11.469-25.669-25.668V528.93c0-14.2 11.47-25.668 25.669-25.668h63.897c14.2 0 25.668 11.469 25.668 25.668v208.077c0 14.2-11.468 25.668-25.668 25.668h-63.897z" fill="#cdcdcd" p-id="866"></path><path d="M242.21 528.93v208.077h-63.897V528.93h63.897m0-50.79h-63.897c-28.4 0-51.337 22.937-51.337 51.336v208.077c0 28.399 22.938 51.337 51.337 51.337h63.897c28.4 0 51.337-22.938 51.337-51.337V529.476c0-28.399-22.938-51.336-51.337-51.336z" fill="#333333" p-id="867"></path></svg>