<?xml version="1.0" standalone="no"?><!DOCTYPE svg PUBLIC "-//W3C//DTD SVG 1.1//EN" "http://www.w3.org/Graphics/SVG/1.1/DTD/svg11.dtd"><svg t="1630593184368" class="icon" viewBox="0 0 1024 1024" version="1.1" xmlns="http://www.w3.org/2000/svg" p-id="805" xmlns:xlink="http://www.w3.org/1999/xlink" width="200" height="200"><defs><style type="text/css"></style></defs><path d="M154.4 1024H2.4V714.8H154V1024zM16 1010.4h124.4v-282H16v282z" fill="#4A555F" p-id="806"></path><path d="M32 744h92.8v250.4H32z" fill="#dbdbdb" p-id="807"></path><path d="M394.4 1024H242.8V411.6h151.6V1024z m-138-13.6h124.4V425.2H256.4v585.2z" fill="#4A555F" p-id="808"></path><path d="M272 440.8h92.8v553.6H272z" fill="#dbdbdb" p-id="809"></path><path d="M634.8 1024H483.2V527.2h151.6V1024z m-138-13.6h124.4V540.8H496.8v469.6z" fill="#4A555F" p-id="810"></path><path d="M512.4 556.4h92.8v438h-92.8z" fill="#E0E0E0" p-id="811"></path><path d="M875.2 1024H723.6V199.6h151.6V1024z m-138.4-13.6h124.4V212.8H736.8v797.6z" fill="#4A555F" p-id="812"></path><path d="M752.8 228.8h92.8v766h-92.8z" fill="#dbdbdb" p-id="813"></path><path d="M980.8 1020.8h-13.6v-13.6h13.6v13.6z m0-27.2h-13.6V980h13.6v13.6z m0-26.8h-13.6v-13.6h13.6v13.6z m0-27.2h-13.6V926h13.6v13.6z m0-27.2h-13.6v-13.6h13.6v13.6z m0-27.2h-13.6V872h13.6v13.2z m0-26.8h-13.6v-13.6h13.6v13.6z m0-27.2h-13.6v-13.6h13.6v13.6z m0-27.2h-13.6v-13.6h13.6V804z m0-27.2h-13.6v-13.6h13.6v13.6z m0-26.8h-13.6v-13.6h13.6V750z m0-27.2h-13.6v-13.6h13.6v13.6z m0-27.2h-13.6V682h13.6v13.6z m0-27.2h-13.6v-13.6h13.6v13.6z m0-26.8h-13.6V628h13.6v13.6z m0-27.2h-13.6v-13.6h13.6v13.6z m0-27.2h-13.6v-13.6h13.6v13.6z m0-27.2h-13.6v-13.6h13.6V560z m0-26.8h-13.6v-13.6h13.6v13.6z m0-27.2h-13.6v-13.6h13.6V506z m0-27.2h-13.6v-13.6h13.6v13.6z m0-27.2h-13.6V438h13.6v13.6z m0-26.8h-13.6v-13.6h13.6v13.6z m0-27.2h-13.6V384h13.6v13.6z m0-27.2h-13.6v-13.6h13.6v13.6z m0-27.2h-13.6v-13.6h13.6v13.6z m0-27.2h-13.6v-13.6h13.6V316z m0-26.8h-13.6v-13.6h13.6v13.6z m0-27.2h-13.6v-13.6h13.6V262z m0-27.2h-13.6v-13.6h13.6v13.6z m0-27.2h-13.6V194h13.6v13.6z m0-26.8h-13.6v-13.6h13.6v13.6z m0-27.2h-13.6V140h13.6v13.6z m0-27.2h-13.6v-13.6h13.6v13.6z m0-27.2h-13.6V85.6h13.6v13.6z m0-26.8h-13.6v-4h13.6v4z" fill="#4A555F" p-id="814"></path><path d="M1010.8 114L974 69.2 936.8 114l-10.4-8.8L974 48l47.6 57.2z" fill="#4A555F" p-id="815"></path><path d="M665.2 0l36 36-230.8 217.2-151.2-131.6L5.6 380v76L318 198.4l154 134L742.8 77.6l39.6 40L782.8 0z" fill="#dbdbdb" p-id="816"></path></svg>