<?xml version="1.0" standalone="no"?><!DOCTYPE svg PUBLIC "-//W3C//DTD SVG 1.1//EN" "http://www.w3.org/Graphics/SVG/1.1/DTD/svg11.dtd"><svg t="1629989779274" class="icon" viewBox="0 0 1024 1024" version="1.1" xmlns="http://www.w3.org/2000/svg" p-id="7092" xmlns:xlink="http://www.w3.org/1999/xlink" width="200" height="200"><defs><style type="text/css"></style></defs><path d="M896.609123 555.453674 544.184515 909.455197c-43.263339 43.432185-113.37414 43.432185-156.639526 0L113.414561 634.099872c-43.23878-43.434232-43.23878-113.885793 0-157.321048l352.451214-354.001523c26.923186-28.386514 32.083719-40.807405 60.335157-40.807405l358.003674 0c28.252461 0 51.135634 22.977317 51.135634 51.363831L935.340239 492.929666C935.339216 521.317203 919.310148 532.659529 896.609123 555.453674zM152.586722 594.762959 426.691567 870.118284c21.633716 21.715581 56.713676 21.715581 78.346369 0l38.730093-38.915311L192.176392 476.359268l-39.58967 39.757492C130.954029 537.831318 130.954029 573.047378 152.586722 594.762959zM884.203582 159.015643c0-14.179954-11.441587-25.680892-25.566282-25.680892L551.76926 133.334751c-14.126742 0-34.168194 16.148795-46.731324 28.779464l-273.713942 274.909164 352.007099 354.423125 274.132474-275.328719c13.788028-13.864776 26.741038-34.689057 26.741038-48.869011L884.204605 159.015643zM602.9315 417.774989c-43.265386-43.459814-43.265386-113.886817 0-157.346631 43.237757-43.433208 113.37414-43.433208 156.638503 0 43.23878 43.458791 43.23878 113.886817 0 157.346631C716.305641 461.208197 646.169257 461.208197 602.9315 417.774989zM720.396819 299.766294c-21.632693-21.717627-56.68707-21.717627-78.31874 0-21.63167 21.742187-21.63167 56.9562 0 78.672804 21.632693 21.716604 56.68707 21.716604 78.31874 0C742.031559 356.722494 742.031559 321.507458 720.396819 299.766294z" p-id="7093"></path></svg>