<?xml version="1.0" standalone="no"?><!DOCTYPE svg PUBLIC "-//W3C//DTD SVG 1.1//EN" "http://www.w3.org/Graphics/SVG/1.1/DTD/svg11.dtd"><svg t="1630071241916" class="icon" viewBox="0 0 1024 1024" version="1.1" xmlns="http://www.w3.org/2000/svg" p-id="5658" xmlns:xlink="http://www.w3.org/1999/xlink" width="200" height="200"><defs><style type="text/css"></style></defs><path d="M512 512m-512 0a512 512 0 1 0 1024 0 512 512 0 1 0-1024 0Z" p-id="5659"></path><path d="M337.92 491.52m20.48 0l307.2 0q20.48 0 20.48 20.48l0 0q0 20.48-20.48 20.48l-307.2 0q-20.48 0-20.48-20.48l0 0q0-20.48 20.48-20.48Z" fill="#EBBA50" p-id="5660"></path><path d="M491.52 337.92m20.48 0l0 0q20.48 0 20.48 20.48l0 307.2q0 20.48-20.48 20.48l0 0q-20.48 0-20.48-20.48l0-307.2q0-20.48 20.48-20.48Z" fill="#EBBA50" p-id="5661"></path></svg>