<?xml version="1.0" standalone="no"?><!DOCTYPE svg PUBLIC "-//W3C//DTD SVG 1.1//EN" "http://www.w3.org/Graphics/SVG/1.1/DTD/svg11.dtd"><svg t="1630037983364" class="icon" viewBox="0 0 1024 1024" version="1.1" xmlns="http://www.w3.org/2000/svg" p-id="19072" xmlns:xlink="http://www.w3.org/1999/xlink" width="200" height="200"><defs><style type="text/css"></style></defs><path d="M937.03 315.83L803.41 135.91a47.689 47.689 0 0 0-38.28-19.25H266.48c-15.09 0-29.29 7.14-38.28 19.25L94.58 315.83c-12.03 16.2-12.03 38.37 0 54.57L242.5 569.56v54.68h546.61v-54.68l147.92-199.17c12.04-16.2 12.04-38.36 0-54.56z" fill="#FFBABF" p-id="19073"></path><path d="M789.11 648.08H242.5c-13.18 0-23.84-10.66-23.84-23.84v-46.8L75.45 384.62c-18.44-24.84-18.44-58.18 0-83.03l133.62-179.91c13.41-18.07 34.88-28.87 57.42-28.87h498.64c22.54 0 44 10.8 57.42 28.89l133.64 179.88c0 0.02 0 0.02 0.02 0.02 18.39 24.82 18.39 58.16 0 82.98L812.95 577.44v46.8c0 13.18-10.67 23.84-23.84 23.84zM266.34 600.4h498.92v-30.85c0-5.12 1.65-10.1 4.7-14.23L917.9 356.16c5.77-7.8 5.8-18.3 0-26.12l-133.64-179.9c-4.47-6.03-11.64-9.64-19.14-9.64H266.48c-7.5 0-14.67 3.61-19.14 9.62L113.72 330.04c-5.8 7.8-5.8 18.32 0 26.12l147.91 199.16c3.05 4.12 4.7 9.1 4.7 14.23l0.01 30.85z" fill="#006360" p-id="19074"></path><path d="M692.09 372.27H558.86c-14.34 0-26.07-11.73-26.07-26.07s11.73-26.07 26.07-26.07h133.23c14.34 0 26.07 11.73 26.07 26.07s-11.73 26.07-26.07 26.07z" fill="#F9AAB4" p-id="19075"></path><path d="M692.09 320.14H558.86c-14.34 0-26.07 11.73-26.07 26.07s11.73 26.07 26.07 26.07h133.23c14.34 0 26.07-11.73 26.07-26.07s-11.73-26.07-26.07-26.07z" fill="#006360" p-id="19076"></path><path d="M807.59 370.45v477.9c0 30.42-21.35 55.07-47.68 55.07H271.7c-26.33 0-47.68-24.66-47.68-55.07v-477.9" fill="#FFBABF" p-id="19077"></path><path d="M759.91 927.27H271.69c-39.44 0-71.52-35.39-71.52-78.9v-477.9c0-13.18 10.66-23.84 23.84-23.84s23.84 10.66 23.84 23.84v477.9c0 16.93 10.92 31.22 23.84 31.22H759.9c12.92 0 23.84-14.3 23.84-31.22v-477.9c0-13.18 10.66-23.84 23.84-23.84s23.84 10.66 23.84 23.84v477.9c0.01 43.51-32.07 78.9-71.51 78.9z" fill="#006360" p-id="19078"></path><path d="M321.63 116.65c38.83 68.9 111.15 115.36 194.18 115.36s155.35-46.47 194.18-115.36H321.63z" fill="#FFFFFF" p-id="19079"></path><path d="M515.81 255.86c-88.29 0-170.64-48.85-214.95-127.5-4.17-7.38-4.1-16.41 0.19-23.75a23.844 23.844 0 0 1 20.58-11.8h388.35c8.47 0 16.32 4.49 20.58 11.8 4.28 7.33 4.35 16.37 0.19 23.75-44.32 78.66-126.7 127.5-214.94 127.5zM367.71 140.5c37.62 42.51 91.38 67.68 148.1 67.68 56.69 0 110.45-25.17 148.1-67.68h-296.2z" fill="#006360" p-id="19080"></path></svg>