<?xml version="1.0" standalone="no"?><!DOCTYPE svg PUBLIC "-//W3C//DTD SVG 1.1//EN" "http://www.w3.org/Graphics/SVG/1.1/DTD/svg11.dtd"><svg t="1630038091881" class="icon" viewBox="0 0 1024 1024" version="1.1" xmlns="http://www.w3.org/2000/svg" p-id="1832" xmlns:xlink="http://www.w3.org/1999/xlink" width="200" height="200"><defs><style type="text/css"></style></defs><path d="M512.003879 233.487515L218.457212 531.347394v25.6h574.324364v-49.710546l-110.095515-98.179878z" fill="#F8D02D" p-id="1833"></path><path d="M294.791758 823.947636a22.403879 22.403879 0 0 1-22.388364-22.372848V574.091636H225.904485c-2.342788 0-4.654545-0.372364-6.904243-1.08606-4.856242-1.582545-17.283879-7.447273-27.353212-27.679031-9.665939-19.393939-4.933818-37.267394 2.063515-46.700606 0.651636-0.868848 1.365333-1.706667 2.141091-2.482424L494.937212 197.057939c4.189091-4.204606 9.883152-6.578424 15.825455-6.562909 5.973333 0 11.574303 2.327273 15.809939 6.531879l85.193697 84.867879c8.750545 8.750545 13.079273 27.229091 4.375273 35.995151-4.189091 4.220121-14.227394 10.907152-20.169697 10.891637a22.248727 22.248727 0 0 1-15.80994-6.516364l-69.352727-69.12L235.10497 536.793212 294.791758 529.299394c12.365576 0.015515 22.372848 10.038303 22.388363 22.388364v227.483151h387.770182V551.687758a22.403879 22.403879 0 0 1 22.388364-22.388364h42.573575l-98.862545-104.975515a22.512485 22.512485 0 0 1-6.593939-15.856485V317.021091c0-12.350061 10.488242-20.526545 22.807272-21.162667 19.223273-0.977455 30.611394 8.812606 30.611394 21.162667v82.152727l106.589091 106.185697c1.303273 1.303273 2.451394 2.761697 3.397818 4.344243 2.048 3.413333 11.776 21.286788 3.211637 40.153212-8.626424 19.006061-28.594424 23.257212-32.519758 23.908848-1.241212 0.201697-2.482424 0.310303-3.723636 0.310303h-45.102546v227.483152c0 12.365576-10.007273 22.372848-22.372848 22.388363H294.791758z" fill="#444444" p-id="1834"></path><path d="M569.689212 816.081455a22.403879 22.403879 0 0 1-22.403879-22.388364v-148.324849h-73.867636v148.324849a22.450424 22.450424 0 0 1-22.388364 22.031515 22.326303 22.326303 0 0 1-22.388363-22.093576v-149.705697a43.395879 43.395879 0 0 1 43.333818-43.333818h76.737939a43.395879 43.395879 0 0 1 43.349334 43.333818v149.767758c0 12.350061-10.022788 22.372848-22.372849 22.388364" fill="#444444" p-id="1835"></path></svg>