<?xml version="1.0" standalone="no"?><!DOCTYPE svg PUBLIC "-//W3C//DTD SVG 1.1//EN" "http://www.w3.org/Graphics/SVG/1.1/DTD/svg11.dtd"><svg t="1630038036188" class="icon" viewBox="0 0 1024 1024" version="1.1" xmlns="http://www.w3.org/2000/svg" p-id="19419" xmlns:xlink="http://www.w3.org/1999/xlink" width="200" height="200"><defs><style type="text/css"></style></defs><path d="M747.7 83.1l21.2 11.2 10.9 5.8 0.3 0.2-25.4 46.7-38.4 71.9-0.5-0.3L606 420.8c8.8 1.8 17.4 3.8 25.9 6.1l111.2-193.3-0.5-0.3 41.3-70.6 26.3-45.8 0.3 0.2 31 18.2 0.3 0.2-27.3 45.4-41.5 70.3-0.5-0.3-111 184.9c73.2 24.9 130.7 66.4 160.4 116.7h22.2v161c0 1.7 0 3.4-0.1 5v1c0 1.3-0.1 2.7-0.1 4v0.8l-0.3 4.2v0.5c-0.1 1.5-0.2 3-0.4 4.5v0.2c-0.2 1.6-0.3 3.1-0.5 4.7-0.6 4.9-1.4 9.8-2.3 14.6-0.3 1.7-0.7 3.3-1 4.9 0 0.2-0.1 0.4-0.1 0.6-0.3 1.4-0.7 2.9-1 4.3-0.1 0.3-0.1 0.6-0.2 0.9-0.3 1.3-0.7 2.7-1.1 4-0.1 0.3-0.2 0.7-0.3 1-0.4 1.3-0.7 2.6-1.1 3.8-0.1 0.3-0.2 0.7-0.3 1-0.4 1.3-0.8 2.5-1.2 3.8-0.1 0.3-0.2 0.7-0.3 1-0.4 1.3-0.9 2.6-1.3 3.8l-0.3 0.9c-0.5 1.4-1 2.7-1.5 4-0.1 0.2-0.2 0.4-0.2 0.6-0.6 1.5-1.2 3.1-1.8 4.6-0.8 2-1.7 3.9-2.6 5.9l-0.3 0.6c-0.8 1.8-1.7 3.5-2.5 5.3-0.1 0.2-0.2 0.3-0.2 0.5-1.9 3.8-3.9 7.5-6 11.2-0.1 0.2-0.2 0.4-0.3 0.5-2.1 3.7-4.4 7.3-6.7 10.8-0.1 0.1-0.2 0.2-0.2 0.4-2.4 3.6-4.9 7.1-7.5 10.5-1 1.4-2.1 2.7-3.2 4l-0.3 0.3c-1 1.2-2 2.5-3.1 3.7l-0.3 0.3c-1.1 1.3-2.2 2.5-3.3 3.7l-0.1 0.1c-5.8 6.5-12.1 12.7-18.7 18.4-5 4.3-10.1 8.3-15.5 12.1h-0.1c-3.5 2.5-7.1 4.9-10.8 7.2-0.1 0.1-0.2 0.1-0.3 0.2-3.7 2.3-7.4 4.4-11.3 6.4-0.1 0-0.1 0.1-0.2 0.1-1.9 1-3.8 2-5.8 2.9-16.5 8.1-34.3 14-53 17.4-0.3 0.1-0.7 0.1-1 0.2-0.8 0.1-1.7 0.3-2.5 0.4-0.7 0.1-1.3 0.2-2 0.3l-2.1 0.3c-0.9 0.1-1.8 0.2-2.6 0.4-0.5 0.1-1.1 0.1-1.6 0.2-1.5 0.2-2.9 0.3-4.4 0.5v30.2c0 6-3.5 10.9-7.7 10.9h-309c-4.3 0-7.7-4.9-7.7-10.9V917C231.9 906.9 151 819.6 151 713.4V552.5h31.8c48.9-83 173.5-142 319.5-142 25 0 49.3 1.7 72.8 5l110.5-212.9-0.5-0.3 38.2-72.5 24.4-46.7m0-10c-1 0-2 0.1-3 0.5-2.5 0.8-4.7 2.6-5.9 4.9l-24.3 46.7-38.2 72.5c-0.5 1-0.9 2.1-1 3.2L569.5 404.7c-22.1-2.8-44.6-4.2-67.2-4.2-72.1 0-141.4 14.1-200.3 40.8-28.6 12.9-54 28.5-75.6 46.3-20.3 16.8-36.9 35.2-49.3 54.9H151c-5.5 0-10 4.5-10 10v160.9c0 53.6 19.9 105 56 144.6 33.8 37.1 79.1 61.1 128.4 68.1v21.3c0 11.7 7.8 20.9 17.7 20.9h309c9.9 0 17.7-9.2 17.7-20.9V926h0.1c0.7-0.1 1.5-0.2 2.2-0.3l2.1-0.3c0.9-0.1 1.8-0.3 2.6-0.4 0.2 0 0.5-0.1 0.7-0.1l0.4-0.1c19.3-3.5 38-9.6 55.6-18.2 2-1 4-2 6.1-3.1l0.2-0.1c4-2.1 7.9-4.4 11.8-6.7l0.1-0.1 0.1-0.1c3.9-2.4 7.7-4.9 11.4-7.5 0 0 0.1 0 0.1-0.1 5.6-3.9 11-8.2 16.2-12.7 6.9-6 13.5-12.5 19.7-19.3l0.1-0.1c1.2-1.3 2.3-2.6 3.4-3.9l0.2-0.2 0.1-0.1c1.1-1.3 2.2-2.6 3.2-3.9l0.1-0.1 0.2-0.2c1.1-1.4 2.3-2.8 3.3-4.2 2.7-3.5 5.4-7.2 7.9-11l0.1-0.1 0.2-0.3c2.5-3.7 4.8-7.5 7.1-11.3l0.3-0.5 0.1-0.1c2.2-3.9 4.4-7.8 6.3-11.7l0.2-0.4 0.1-0.2c0.9-1.8 1.8-3.7 2.7-5.6l0.1-0.2 0.2-0.4c1-2.1 1.9-4.2 2.7-6.2 0.6-1.5 1.3-3.1 1.9-4.8l0.2-0.4 0.1-0.2c0.6-1.4 1.1-2.9 1.6-4.2l0.2-0.6 0.1-0.3c0.5-1.4 1-2.7 1.4-4 0.1-0.3 0.2-0.5 0.3-0.8l0.1-0.2c0.4-1.3 0.9-2.7 1.3-4 0.1-0.4 0.2-0.7 0.3-1.1 0.4-1.3 0.8-2.7 1.2-4l0.1-0.2 0.2-0.8c0.4-1.3 0.7-2.8 1.1-4.2l0.1-0.3 0.2-0.6c0.4-1.5 0.7-3 1.1-4.5v-0.2l0.1-0.4c0.4-1.8 0.8-3.5 1.1-5.2 1-5 1.8-10.2 2.4-15.2v-0.1c0.2-1.6 0.4-3.3 0.5-4.9v-0.3c0.1-1.5 0.3-3 0.4-4.7v-0.1-0.4c0.1-1.3 0.2-2.7 0.3-4.4v-0.3-0.6c0.1-1.5 0.1-3 0.2-4.2v-0.3-0.7c0-1.8 0.1-3.5 0.1-5.3V631v-0.1-78.1c0-5.5-4.5-10-10-10h-16.6c-29.8-47.3-83-86.7-151.1-112l103.1-171.6c0.8-0.7 1.6-1.6 2.2-2.6l41.6-70.3 27.3-45.4c1.4-2.3 1.8-5 1.1-7.6-0.7-2.6-2.3-4.8-4.6-6.2l-0.3-0.2-31-18.2-0.3-0.2c-1.5-0.9-3.3-1.4-5.1-1.4-0.9 0-1.7 0.1-2.6 0.3-2.6 0.7-4.8 2.4-6.1 4.7l-26.3 45.8-41.7 70.4c-0.6 1-1 2.1-1.2 3.1L627.1 415.3c-2-0.5-3.9-1-5.9-1.4l101.9-187.7c0.8-0.7 1.5-1.6 2.1-2.7l38.4-71.9 25.3-46.6c1.3-2.3 1.6-5.1 0.8-7.7-0.8-2.6-2.5-4.7-4.9-5.9l-0.3-0.2-10.9-5.8-21.2-11.2c-1.4-0.7-3.1-1.1-4.7-1.1z" fill="#312B2B" p-id="19420"></path><path d="M160.7 630.6a341.7 220.1 0 1 0 683.4 0 341.7 220.1 0 1 0-683.4 0Z" fill="#FAFBF3" p-id="19421"></path><path d="M414.2 725.7l20.4 10.8 345.5-636.2-32.4-17.2z" fill="#B8BDBC" p-id="19422"></path><path d="M716.3 218.9l-31.1-16.5L748 83.3l31.8 16.8z" fill="#F6BE95" p-id="19423"></path><path d="M449.3 744.4l19.9 11.7 372.7-620.6-31.6-18.6z" fill="#B8BDBC" p-id="19424"></path><path d="M773 251.2l-30.3-17.8 67.9-116.3 31 18.2z" fill="#F6BE95" p-id="19425"></path><path d="M151 552.5v160.9c0 106.2 80.8 193.5 184.3 203.8v30.2c0 6 3.5 10.9 7.7 10.9h309c4.3 0 7.7-4.9 7.7-10.9v-30.2C763.2 906.9 844 819.6 844 713.4V552.5H151z" fill="#CFE9EB" p-id="19426"></path><path d="M657.1 730.8m-57.2 0a57.2 57.2 0 1 0 114.4 0 57.2 57.2 0 1 0-114.4 0Z" fill="#F6BE95" p-id="19427"></path><path d="M444.20954 795.563826a23.1 74.6 72.631 1 0 142.396776-44.539849 23.1 74.6 72.631 1 0-142.396776 44.539849Z" fill="#F6BE95" p-id="19428"></path><path d="M505.089709 893.374857a23.1 74.6 42.633 1 0 101.053133-109.767501 23.1 74.6 42.633 1 0-101.053133 109.767501Z" fill="#F6BE95" p-id="19429"></path><path d="M639.3 802c12.4 2.8 15.2 37.6 6.2 77.8-9 40.2-26.4 70.5-38.8 67.7-12.4-2.8-15.2-37.6-6.2-77.8 9-40.2 26.4-70.5 38.8-67.7zM677.3 801.4c12.2-3.8 32 25 44.3 64.3 12.3 39.3 12.4 74.3 0.2 78.1-12.2 3.8-32-25-44.3-64.3-12.3-39.4-12.4-74.3-0.2-78.1z" fill="#F6BE95" p-id="19430"></path><path d="M749.1675 849.362759a74.6 23.1 42.633 1 0 31.291252-33.989668 74.6 23.1 42.633 1 0-31.291252 33.989668Z" fill="#F6BE95" p-id="19431"></path><path d="M796.010043 787.46148a74.6 23.1 12.633 1 0 10.104185-45.081542 74.6 23.1 12.633 1 0-10.104185 45.081542Z" fill="#F6BE95" p-id="19432"></path><path d="M727.7 710.7c-3.8-12.2 25-32 64.3-44.3 39.3-12.3 74.3-12.4 78.1-0.2 3.8 12.2-25 32-64.3 44.3-39.4 12.2-74.3 12.4-78.1 0.2z" fill="#F6BE95" p-id="19433"></path><path d="M708.154459 678.060492a23.1 74.6 42.633 1 0 101.053133-109.767501 23.1 74.6 42.633 1 0-101.053133 109.767501Z" fill="#F6BE95" p-id="19434"></path><path d="M675 659.7c-12.4-2.8-15.2-37.6-6.2-77.8 9-40.2 26.4-70.5 38.8-67.7 12.4 2.8 15.2 37.6 6.2 77.8-9 40.1-26.4 70.5-38.8 67.7z" fill="#F6BE95" p-id="19435"></path><path d="M592.64702 595.998709a74.6 23.1 72.631 1 0 44.093372-13.79183 74.6 23.1 72.631 1 0-44.093372 13.79183Z" fill="#F6BE95" p-id="19436"></path><path d="M604.4 679.8c-8.6 9.4-40.2-5.6-70.5-33.5-30.3-27.9-47.9-58.1-39.2-67.5 8.6-9.4 40.2 5.6 70.5 33.5 30.3 27.9 47.9 58.1 39.2 67.5z" fill="#F6BE95" p-id="19437"></path><path d="M508.128774 719.236875a74.6 23.1 12.633 1 0 10.104185-45.081543 74.6 23.1 12.633 1 0-10.104185 45.081543Z" fill="#F6BE95" p-id="19438"></path><path d="M444.20954 795.563826a23.1 74.6 72.631 1 0 142.396776-44.539849 23.1 74.6 72.631 1 0-142.396776 44.539849Z" fill="#F6BE95" p-id="19439"></path><path d="M505.089709 893.374857a23.1 74.6 42.633 1 0 101.053133-109.767501 23.1 74.6 42.633 1 0-101.053133 109.767501Z" fill="#F6BE95" p-id="19440"></path><path d="M639.3 802c12.4 2.8 15.2 37.6 6.2 77.8-9 40.2-26.4 70.5-38.8 67.7-12.4-2.8-15.2-37.6-6.2-77.8 9-40.2 26.4-70.5 38.8-67.7zM677.3 801.4c12.2-3.8 32 25 44.3 64.3 12.3 39.3 12.4 74.3 0.2 78.1-12.2 3.8-32-25-44.3-64.3-12.3-39.4-12.4-74.3-0.2-78.1z" fill="#F6BE95" p-id="19441"></path><path d="M749.1675 849.362759a74.6 23.1 42.633 1 0 31.291252-33.989668 74.6 23.1 42.633 1 0-31.291252 33.989668Z" fill="#F6BE95" p-id="19442"></path><path d="M796.010043 787.46148a74.6 23.1 12.633 1 0 10.104185-45.081542 74.6 23.1 12.633 1 0-10.104185 45.081542Z" fill="#F6BE95" p-id="19443"></path><path d="M727.7 710.7c-3.8-12.2 25-32 64.3-44.3 39.3-12.3 74.3-12.4 78.1-0.2 3.8 12.2-25 32-64.3 44.3-39.4 12.2-74.3 12.4-78.1 0.2z" fill="#F6BE95" p-id="19444"></path><path d="M708.154459 678.060492a23.1 74.6 42.633 1 0 101.053133-109.767501 23.1 74.6 42.633 1 0-101.053133 109.767501Z" fill="#F6BE95" p-id="19445"></path><path d="M675 659.7c-12.4-2.8-15.2-37.6-6.2-77.8 9-40.2 26.4-70.5 38.8-67.7 12.4 2.8 15.2 37.6 6.2 77.8-9 40.1-26.4 70.5-38.8 67.7z" fill="#F6BE95" p-id="19446"></path><path d="M592.64702 595.998709a74.6 23.1 72.631 1 0 44.093372-13.79183 74.6 23.1 72.631 1 0-44.093372 13.79183Z" fill="#F6BE95" p-id="19447"></path><path d="M604.4 679.8c-8.6 9.4-40.2-5.6-70.5-33.5-30.3-27.9-47.9-58.1-39.2-67.5 8.6-9.4 40.2 5.6 70.5 33.5 30.3 27.9 47.9 58.1 39.2 67.5z" fill="#F6BE95" p-id="19448"></path><path d="M508.128774 719.236875a74.6 23.1 12.633 1 0 10.104185-45.081543 74.6 23.1 12.633 1 0-10.104185 45.081543Z" fill="#F6BE95" p-id="19449"></path></svg>