<?xml version="1.0" standalone="no"?><!DOCTYPE svg PUBLIC "-//W3C//DTD SVG 1.1//EN" "http://www.w3.org/Graphics/SVG/1.1/DTD/svg11.dtd"><svg t="1630038349241" class="icon" viewBox="0 0 1024 1024" version="1.1" xmlns="http://www.w3.org/2000/svg" p-id="3626" xmlns:xlink="http://www.w3.org/1999/xlink" width="200" height="200"><defs><style type="text/css"></style></defs><path d="M725.333333 928a53.333333 53.333333 0 0 1-106.666666 0V896h-213.333334v32a53.333333 53.333333 0 0 1-106.666666 0V896H256a85.333333 85.333333 0 0 1-85.333333-85.333333V277.333333a85.333333 85.333333 0 0 1 85.333333-85.333333h42.666667v-85.333333a64 64 0 0 1 57.856-63.701334L362.666667 42.666667h298.666666A64 64 0 0 1 725.333333 106.666667v85.333333h42.666667a85.333333 85.333333 0 0 1 85.333333 85.333333V810.666667a85.333333 85.333333 0 0 1-85.333333 85.333333h-42.666667v32zM384 362.666667a42.666667 42.666667 0 0 0-42.368 37.674666L341.333333 405.333333v298.666667a42.666667 42.666667 0 0 0 85.034667 4.992L426.666667 704v-298.666667a42.666667 42.666667 0 0 0-42.666667-42.666666z m256 0a42.666667 42.666667 0 0 0-42.368 37.674666L597.333333 405.333333v298.666667a42.666667 42.666667 0 0 0 85.034667 4.992L682.666667 704v-298.666667a42.666667 42.666667 0 0 0-42.666667-42.666666zM640 128H384v64h256V128z" p-id="3627"></path></svg>